<mxfile host="app.diagrams.net" modified="2024-03-22T21:41:09.646Z" agent="Mozilla/5.0 (Windows NT 10.0; Win64; x64) AppleWebKit/537.36 (KHTML, like Gecko) Chrome/122.0.0.0 Safari/537.36" etag="ecB6NNl4ADEnT77VBKwY" version="24.0.7" type="device">
  <diagram name="Page-1" id="e7e014a7-5840-1c2e-5031-d8a46d1fe8dd">
    <mxGraphModel dx="1194" dy="750" grid="1" gridSize="8" guides="1" tooltips="1" connect="1" arrows="1" fold="1" page="1" pageScale="1" pageWidth="1169" pageHeight="826" background="none" math="0" shadow="0">
      <root>
        <mxCell id="0" />
        <mxCell id="1" parent="0" />
        <mxCell id="kaK9iQh9Ob1TXoF932R1-41" value="Field" style="swimlane;fontStyle=1;align=center;verticalAlign=top;childLayout=stackLayout;horizontal=1;startSize=26;horizontalStack=0;resizeParent=1;resizeParentMax=0;resizeLast=0;collapsible=1;marginBottom=0;whiteSpace=wrap;html=1;" parent="1" vertex="1">
          <mxGeometry x="216" y="32" width="160" height="80" as="geometry">
            <mxRectangle x="505" y="30" width="70" height="30" as="alternateBounds" />
          </mxGeometry>
        </mxCell>
        <mxCell id="kaK9iQh9Ob1TXoF932R1-42" value="+ value: any&amp;nbsp;" style="text;strokeColor=none;fillColor=none;align=left;verticalAlign=top;spacingLeft=4;spacingRight=4;overflow=hidden;rotatable=0;points=[[0,0.5],[1,0.5]];portConstraint=eastwest;whiteSpace=wrap;html=1;" parent="kaK9iQh9Ob1TXoF932R1-41" vertex="1">
          <mxGeometry y="26" width="160" height="22" as="geometry" />
        </mxCell>
        <mxCell id="kaK9iQh9Ob1TXoF932R1-43" value="" style="line;strokeWidth=1;fillColor=none;align=left;verticalAlign=middle;spacingTop=-1;spacingLeft=3;spacingRight=3;rotatable=0;labelPosition=right;points=[];portConstraint=eastwest;strokeColor=inherit;" parent="kaK9iQh9Ob1TXoF932R1-41" vertex="1">
          <mxGeometry y="48" width="160" height="8" as="geometry" />
        </mxCell>
        <mxCell id="kaK9iQh9Ob1TXoF932R1-44" value="+ __str__()&amp;nbsp;" style="text;strokeColor=none;fillColor=none;align=left;verticalAlign=top;spacingLeft=4;spacingRight=4;overflow=hidden;rotatable=0;points=[[0,0.5],[1,0.5]];portConstraint=eastwest;whiteSpace=wrap;html=1;" parent="kaK9iQh9Ob1TXoF932R1-41" vertex="1">
          <mxGeometry y="56" width="160" height="24" as="geometry" />
        </mxCell>
        <mxCell id="kaK9iQh9Ob1TXoF932R1-139" value="" style="edgeStyle=orthogonalEdgeStyle;rounded=0;orthogonalLoop=1;jettySize=auto;html=1;fontFamily=Helvetica;fontSize=12;fontColor=default;endArrow=block;endFill=0;entryX=0.5;entryY=1;entryDx=0;entryDy=0;" parent="1" source="kaK9iQh9Ob1TXoF932R1-46" target="kaK9iQh9Ob1TXoF932R1-125" edge="1">
          <mxGeometry relative="1" as="geometry">
            <mxPoint x="960" y="80" as="targetPoint" />
          </mxGeometry>
        </mxCell>
        <mxCell id="kaK9iQh9Ob1TXoF932R1-46" value="AddressBook" style="swimlane;fontStyle=1;align=center;verticalAlign=top;childLayout=stackLayout;horizontal=1;startSize=40;horizontalStack=0;resizeParent=1;resizeParentMax=0;resizeLast=0;collapsible=1;marginBottom=0;whiteSpace=wrap;html=1;swimlaneLine=1;glass=0;shadow=0;rounded=0;" parent="1" vertex="1">
          <mxGeometry x="880" y="128" width="160" height="184" as="geometry">
            <mxRectangle x="505" y="30" width="70" height="30" as="alternateBounds" />
          </mxGeometry>
        </mxCell>
        <mxCell id="kaK9iQh9Ob1TXoF932R1-49" value="&lt;div&gt;+ data: UserDict&lt;/div&gt;" style="text;strokeColor=none;fillColor=none;align=left;verticalAlign=top;spacingLeft=4;spacingRight=4;overflow=hidden;rotatable=0;points=[[0,0.5],[1,0.5]];portConstraint=eastwest;whiteSpace=wrap;html=1;" parent="kaK9iQh9Ob1TXoF932R1-46" vertex="1">
          <mxGeometry y="40" width="160" height="24" as="geometry" />
        </mxCell>
        <mxCell id="kaK9iQh9Ob1TXoF932R1-120" value="" style="line;strokeWidth=1;fillColor=none;align=left;verticalAlign=middle;spacingTop=-1;spacingLeft=3;spacingRight=3;rotatable=0;labelPosition=right;points=[];portConstraint=eastwest;strokeColor=inherit;fontFamily=Helvetica;fontSize=12;fontColor=default;" parent="kaK9iQh9Ob1TXoF932R1-46" vertex="1">
          <mxGeometry y="64" width="160" height="8" as="geometry" />
        </mxCell>
        <mxCell id="kaK9iQh9Ob1TXoF932R1-119" value="+ add_record(Record)&lt;div&gt;+ find()&lt;/div&gt;&lt;div&gt;+ delete()&lt;/div&gt;&lt;div&gt;+get_birthday()&lt;/div&gt;&lt;div&gt;+__str__()&lt;/div&gt;&lt;div&gt;&lt;br&gt;&lt;/div&gt;&lt;div&gt;&lt;br&gt;&lt;/div&gt;" style="text;strokeColor=none;fillColor=none;align=left;verticalAlign=top;spacingLeft=4;spacingRight=4;overflow=hidden;rotatable=0;points=[[0,0.5],[1,0.5]];portConstraint=eastwest;whiteSpace=wrap;html=1;" parent="kaK9iQh9Ob1TXoF932R1-46" vertex="1">
          <mxGeometry y="72" width="160" height="112" as="geometry" />
        </mxCell>
        <mxCell id="iD3bWe3vSTp9Mhv0jDQY-10" style="edgeStyle=orthogonalEdgeStyle;rounded=0;orthogonalLoop=1;jettySize=auto;html=1;endArrow=blockThin;endFill=0;" parent="1" source="kaK9iQh9Ob1TXoF932R1-79" target="kaK9iQh9Ob1TXoF932R1-44" edge="1">
          <mxGeometry relative="1" as="geometry" />
        </mxCell>
        <mxCell id="iD3bWe3vSTp9Mhv0jDQY-11" style="edgeStyle=orthogonalEdgeStyle;rounded=0;orthogonalLoop=1;jettySize=auto;html=1;endArrow=diamond;endFill=0;" parent="1" source="kaK9iQh9Ob1TXoF932R1-79" target="kaK9iQh9Ob1TXoF932R1-106" edge="1">
          <mxGeometry relative="1" as="geometry">
            <Array as="points">
              <mxPoint x="96" y="408" />
              <mxPoint x="728" y="408" />
            </Array>
          </mxGeometry>
        </mxCell>
        <mxCell id="kaK9iQh9Ob1TXoF932R1-79" value="Name" style="swimlane;fontStyle=1;align=center;verticalAlign=top;childLayout=stackLayout;horizontal=1;startSize=26;horizontalStack=0;resizeParent=1;resizeParentMax=0;resizeLast=0;collapsible=1;marginBottom=0;whiteSpace=wrap;html=1;" parent="1" vertex="1">
          <mxGeometry x="16" y="192" width="160" height="56" as="geometry">
            <mxRectangle x="16" y="192" width="70" height="30" as="alternateBounds" />
          </mxGeometry>
        </mxCell>
        <mxCell id="kaK9iQh9Ob1TXoF932R1-80" value="+ value: str&amp;nbsp;" style="text;strokeColor=none;fillColor=none;align=left;verticalAlign=top;spacingLeft=4;spacingRight=4;overflow=hidden;rotatable=0;points=[[0,0.5],[1,0.5]];portConstraint=eastwest;whiteSpace=wrap;html=1;" parent="kaK9iQh9Ob1TXoF932R1-79" vertex="1">
          <mxGeometry y="26" width="160" height="22" as="geometry" />
        </mxCell>
        <mxCell id="kaK9iQh9Ob1TXoF932R1-81" value="" style="line;strokeWidth=1;fillColor=none;align=left;verticalAlign=middle;spacingTop=-1;spacingLeft=3;spacingRight=3;rotatable=0;labelPosition=right;points=[];portConstraint=eastwest;strokeColor=inherit;" parent="kaK9iQh9Ob1TXoF932R1-79" vertex="1">
          <mxGeometry y="48" width="160" height="8" as="geometry" />
        </mxCell>
        <mxCell id="iD3bWe3vSTp9Mhv0jDQY-20" style="edgeStyle=orthogonalEdgeStyle;rounded=0;orthogonalLoop=1;jettySize=auto;html=1;endArrow=none;endFill=0;" parent="1" source="kaK9iQh9Ob1TXoF932R1-84" edge="1">
          <mxGeometry relative="1" as="geometry">
            <mxPoint x="296" y="408" as="targetPoint" />
          </mxGeometry>
        </mxCell>
        <mxCell id="kaK9iQh9Ob1TXoF932R1-84" value="Phone" style="swimlane;fontStyle=1;align=center;verticalAlign=top;childLayout=stackLayout;horizontal=1;startSize=26;horizontalStack=0;resizeParent=1;resizeParentMax=0;resizeLast=0;collapsible=1;marginBottom=0;whiteSpace=wrap;html=1;" parent="1" vertex="1">
          <mxGeometry x="216" y="192" width="160" height="120" as="geometry">
            <mxRectangle x="505" y="30" width="70" height="30" as="alternateBounds" />
          </mxGeometry>
        </mxCell>
        <mxCell id="kaK9iQh9Ob1TXoF932R1-85" value="+ number: str&amp;nbsp;" style="text;strokeColor=none;fillColor=none;align=left;verticalAlign=top;spacingLeft=4;spacingRight=4;overflow=hidden;rotatable=0;points=[[0,0.5],[1,0.5]];portConstraint=eastwest;whiteSpace=wrap;html=1;" parent="kaK9iQh9Ob1TXoF932R1-84" vertex="1">
          <mxGeometry y="26" width="160" height="22" as="geometry" />
        </mxCell>
        <mxCell id="kaK9iQh9Ob1TXoF932R1-86" value="" style="line;strokeWidth=1;fillColor=none;align=left;verticalAlign=middle;spacingTop=-1;spacingLeft=3;spacingRight=3;rotatable=0;labelPosition=right;points=[];portConstraint=eastwest;strokeColor=inherit;" parent="kaK9iQh9Ob1TXoF932R1-84" vertex="1">
          <mxGeometry y="48" width="160" height="8" as="geometry" />
        </mxCell>
        <mxCell id="kaK9iQh9Ob1TXoF932R1-87" value="+ validate_number()&lt;div&gt;+__eq__()&lt;/div&gt;&lt;div&gt;+__str__()&amp;nbsp;&lt;/div&gt;" style="text;strokeColor=none;fillColor=none;align=left;verticalAlign=top;spacingLeft=4;spacingRight=4;overflow=hidden;rotatable=0;points=[[0,0.5],[1,0.5]];portConstraint=eastwest;whiteSpace=wrap;html=1;" parent="kaK9iQh9Ob1TXoF932R1-84" vertex="1">
          <mxGeometry y="56" width="160" height="64" as="geometry" />
        </mxCell>
        <mxCell id="iD3bWe3vSTp9Mhv0jDQY-8" style="edgeStyle=orthogonalEdgeStyle;rounded=0;orthogonalLoop=1;jettySize=auto;html=1;endArrow=blockThin;endFill=0;" parent="1" source="kaK9iQh9Ob1TXoF932R1-90" target="kaK9iQh9Ob1TXoF932R1-44" edge="1">
          <mxGeometry relative="1" as="geometry" />
        </mxCell>
        <mxCell id="iD3bWe3vSTp9Mhv0jDQY-19" style="edgeStyle=orthogonalEdgeStyle;rounded=0;orthogonalLoop=1;jettySize=auto;html=1;endArrow=none;endFill=0;" parent="1" source="kaK9iQh9Ob1TXoF932R1-90" edge="1">
          <mxGeometry relative="1" as="geometry">
            <mxPoint x="480" y="408" as="targetPoint" />
          </mxGeometry>
        </mxCell>
        <mxCell id="kaK9iQh9Ob1TXoF932R1-90" value="Birthday" style="swimlane;fontStyle=1;align=center;verticalAlign=top;childLayout=stackLayout;horizontal=1;startSize=26;horizontalStack=0;resizeParent=1;resizeParentMax=0;resizeLast=0;collapsible=1;marginBottom=0;whiteSpace=wrap;html=1;" parent="1" vertex="1">
          <mxGeometry x="400" y="192" width="160" height="56" as="geometry">
            <mxRectangle x="505" y="30" width="70" height="30" as="alternateBounds" />
          </mxGeometry>
        </mxCell>
        <mxCell id="kaK9iQh9Ob1TXoF932R1-91" value="+ value: date" style="text;strokeColor=none;fillColor=none;align=left;verticalAlign=top;spacingLeft=4;spacingRight=4;overflow=hidden;rotatable=0;points=[[0,0.5],[1,0.5]];portConstraint=eastwest;whiteSpace=wrap;html=1;" parent="kaK9iQh9Ob1TXoF932R1-90" vertex="1">
          <mxGeometry y="26" width="160" height="22" as="geometry" />
        </mxCell>
        <mxCell id="kaK9iQh9Ob1TXoF932R1-92" value="" style="line;strokeWidth=1;fillColor=none;align=left;verticalAlign=middle;spacingTop=-1;spacingLeft=3;spacingRight=3;rotatable=0;labelPosition=right;points=[];portConstraint=eastwest;strokeColor=inherit;" parent="kaK9iQh9Ob1TXoF932R1-90" vertex="1">
          <mxGeometry y="48" width="160" height="8" as="geometry" />
        </mxCell>
        <mxCell id="kaK9iQh9Ob1TXoF932R1-103" value="Record" style="swimlane;fontStyle=1;align=center;verticalAlign=top;childLayout=stackLayout;horizontal=1;startSize=26;horizontalStack=0;resizeParent=1;resizeParentMax=0;resizeLast=0;collapsible=1;marginBottom=0;whiteSpace=wrap;html=1;" parent="1" vertex="1">
          <mxGeometry x="624" y="32" width="160" height="200" as="geometry">
            <mxRectangle x="505" y="30" width="70" height="30" as="alternateBounds" />
          </mxGeometry>
        </mxCell>
        <mxCell id="kaK9iQh9Ob1TXoF932R1-104" value="+ name: Name&lt;div&gt;+ birthday: Birthday&lt;/div&gt;&lt;div&gt;+ phones: list Phope&amp;nbsp;&lt;/div&gt;" style="text;strokeColor=none;fillColor=none;align=left;verticalAlign=top;spacingLeft=4;spacingRight=4;overflow=hidden;rotatable=0;points=[[0,0.5],[1,0.5]];portConstraint=eastwest;whiteSpace=wrap;html=1;" parent="kaK9iQh9Ob1TXoF932R1-103" vertex="1">
          <mxGeometry y="26" width="160" height="70" as="geometry" />
        </mxCell>
        <mxCell id="kaK9iQh9Ob1TXoF932R1-105" value="" style="line;strokeWidth=1;fillColor=none;align=left;verticalAlign=middle;spacingTop=-1;spacingLeft=3;spacingRight=3;rotatable=0;labelPosition=right;points=[];portConstraint=eastwest;strokeColor=inherit;" parent="kaK9iQh9Ob1TXoF932R1-103" vertex="1">
          <mxGeometry y="96" width="160" height="8" as="geometry" />
        </mxCell>
        <mxCell id="kaK9iQh9Ob1TXoF932R1-106" value="+ add_phone()&amp;nbsp;&lt;div&gt;+ add_birthday()&lt;/div&gt;&lt;div&gt;+ remove_phone()&lt;/div&gt;&lt;div&gt;+ edit_phone()&lt;/div&gt;&lt;div&gt;+ find_phone()&lt;/div&gt;&lt;div&gt;+ __str__()&lt;br&gt;&lt;div&gt;&lt;br&gt;&lt;/div&gt;&lt;/div&gt;" style="text;strokeColor=none;fillColor=none;align=left;verticalAlign=top;spacingLeft=4;spacingRight=4;overflow=hidden;rotatable=0;points=[[0,0.5],[1,0.5]];portConstraint=eastwest;whiteSpace=wrap;html=1;" parent="kaK9iQh9Ob1TXoF932R1-103" vertex="1">
          <mxGeometry y="104" width="160" height="96" as="geometry" />
        </mxCell>
        <mxCell id="37A0cv-1fz-vUTkdQyZP-1" value="" style="edgeStyle=orthogonalEdgeStyle;rounded=0;orthogonalLoop=1;jettySize=auto;html=1;startArrow=diamond;startFill=0;exitX=0;exitY=0.5;exitDx=0;exitDy=0;" edge="1" parent="1" source="kaK9iQh9Ob1TXoF932R1-46" target="kaK9iQh9Ob1TXoF932R1-104">
          <mxGeometry relative="1" as="geometry" />
        </mxCell>
        <mxCell id="kaK9iQh9Ob1TXoF932R1-125" value="UserDict" style="swimlane;fontStyle=1;align=center;verticalAlign=top;childLayout=stackLayout;horizontal=1;startSize=32;horizontalStack=0;resizeParent=1;resizeParentMax=0;resizeLast=0;collapsible=1;marginBottom=0;whiteSpace=wrap;html=1;swimlaneLine=1;glass=0;shadow=0;rounded=0;" parent="1" vertex="1">
          <mxGeometry x="880" y="32" width="160" height="40" as="geometry">
            <mxRectangle x="505" y="30" width="70" height="30" as="alternateBounds" />
          </mxGeometry>
        </mxCell>
        <mxCell id="iD3bWe3vSTp9Mhv0jDQY-9" style="edgeStyle=orthogonalEdgeStyle;rounded=0;orthogonalLoop=1;jettySize=auto;html=1;entryX=0.431;entryY=1;entryDx=0;entryDy=0;entryPerimeter=0;endArrow=blockThin;endFill=0;" parent="1" source="kaK9iQh9Ob1TXoF932R1-84" target="kaK9iQh9Ob1TXoF932R1-44" edge="1">
          <mxGeometry relative="1" as="geometry" />
        </mxCell>
      </root>
    </mxGraphModel>
  </diagram>
</mxfile>
